{"asset":{"version":"2.0","generator":"City Outbreak custom rig"},"extensionsUsed":["KHR_materials_emissive_strength"],"scene":0,"scenes":[{"nodes":[0]}],"nodes":[{"name":"Zombie","children":[1,2]},{"name":"ZombieMesh","mesh":0,"skin":0},{"name":"Hips","translation":[0,0.9,0],"children":[3,13,16]},{"name":"Spine","translation":[0,0.25,0],"children":[4]},{"name":"Chest","translation":[0,0.28,-0.025],"children":[5,7,10]},{"name":"Neck","translation":[0,0.27,-0.035],"children":[6]},{"name":"Head","translation":[0,0.18,-0.04]},{"name":"L_UpperArm","translation":[-0.25,0.12,-0.04],"children":[8]},{"name":"L_LowerArm","translation":[0,-0.31,-0.015],"children":[9]},{"name":"L_Hand","translation":[0,-0.3,-0.045]},{"name":"R_UpperArm","translation":[0.25,0.12,-0.04],"children":[11]},{"name":"R_LowerArm","translation":[0,-0.31,-0.015],"children":[12]},{"name":"R_Hand","translation":[0,-0.3,-0.045]},{"name":"L_UpperLeg","translation":[-0.115,-0.1,0],"children":[14]},{"name":"L_LowerLeg","translation":[0,-0.39,0],"children":[15]},{"name":"L_Foot","translation":[0,-0.34,-0.06]},{"name":"R_UpperLeg","translation":[0.115,-0.1,0],"children":[17]},{"name":"R_LowerLeg","translation":[0,-0.39,0],"children":[18]},{"name":"R_Foot","translation":[0,-0.34,-0.06]}],"meshes":[{"name":"ZombieBody","primitives":[{"attributes":{"POSITION":0,"NORMAL":1,"JOINTS_0":2,"WEIGHTS_0":3},"material":0,"mode":4},{"attributes":{"POSITION":4,"NORMAL":5,"JOINTS_0":6,"WEIGHTS_0":7},"material":1,"mode":4},{"attributes":{"POSITION":8,"NORMAL":9,"JOINTS_0":10,"WEIGHTS_0":11},"material":2,"mode":4},{"attributes":{"POSITION":12,"NORMAL":13,"JOINTS_0":14,"WEIGHTS_0":15},"material":3,"mode":4},{"attributes":{"POSITION":16,"NORMAL":17,"JOINTS_0":18,"WEIGHTS_0":19},"material":4,"mode":4},{"attributes":{"POSITION":20,"NORMAL":21,"JOINTS_0":22,"WEIGHTS_0":23},"material":5,"mode":4},{"attributes":{"POSITION":24,"NORMAL":25,"JOINTS_0":26,"WEIGHTS_0":27},"material":6,"mode":4}]}],"skins":[{"name":"ZombieSkin","inverseBindMatrices":28,"joints":[2,3,4,5,6,7,8,9,10,11,12,13,14,15,16,17,18],"skeleton":2}],"materials":[{"name":"Skin","pbrMetallicRoughness":{"baseColorFactor":[0.48,0.5,0.42,1],"metallicFactor":0,"roughnessFactor":0.95}},{"name":"Shirt","pbrMetallicRoughness":{"baseColorFactor":[0.23,0.29,0.25,1],"metallicFactor":0,"roughnessFactor":0.98}},{"name":"Pants","pbrMetallicRoughness":{"baseColorFactor":[0.13,0.15,0.17,1],"metallicFactor":0,"roughnessFactor":0.98}},{"name":"Shoes","pbrMetallicRoughness":{"baseColorFactor":[0.07,0.07,0.075,1],"metallicFactor":0,"roughnessFactor":0.95}},{"name":"Wound","pbrMetallicRoughness":{"baseColorFactor":[0.48,0.035,0.03,1],"metallicFactor":0,"roughnessFactor":0.88}},{"name":"Eyes","pbrMetallicRoughness":{"baseColorFactor":[1,0.72,0.06,1],"metallicFactor":0,"roughnessFactor":0.25},"emissiveFactor":[1,0.72,0.06],"extensions":{"KHR_materials_emissive_strength":{"emissiveStrength":3}}},{"name":"Hair","pbrMetallicRoughness":{"baseColorFactor":[0.07,0.055,0.045,1],"metallicFactor":0,"roughnessFactor":0.98}}],"animations":[{"name":"Idle","samplers":[{"input":29,"output":30,"interpolation":"LINEAR"},{"input":31,"output":32,"interpolation":"LINEAR"}],"channels":[{"sampler":0,"target":{"node":3,"path":"rotation"}},{"sampler":1,"target":{"node":6,"path":"rotation"}}]},{"name":"Shamble","samplers":[{"input":33,"output":34,"interpolation":"LINEAR"},{"input":35,"output":36,"interpolation":"LINEAR"},{"input":37,"output":38,"interpolation":"LINEAR"},{"input":39,"output":40,"interpolation":"LINEAR"},{"input":41,"output":42,"interpolation":"LINEAR"},{"input":43,"output":44,"interpolation":"LINEAR"},{"input":45,"output":46,"interpolation":"LINEAR"},{"input":47,"output":48,"interpolation":"LINEAR"},{"input":49,"output":50,"interpolation":"LINEAR"},{"input":51,"output":52,"interpolation":"LINEAR"},{"input":53,"output":54,"interpolation":"LINEAR"}],"channels":[{"sampler":0,"target":{"node":3,"path":"rotation"}},{"sampler":1,"target":{"node":4,"path":"rotation"}},{"sampler":2,"target":{"node":6,"path":"rotation"}},{"sampler":3,"target":{"node":13,"path":"rotation"}},{"sampler":4,"target":{"node":16,"path":"rotation"}},{"sampler":5,"target":{"node":14,"path":"rotation"}},{"sampler":6,"target":{"node":17,"path":"rotation"}},{"sampler":7,"target":{"node":7,"path":"rotation"}},{"sampler":8,"target":{"node":10,"path":"rotation"}},{"sampler":9,"target":{"node":8,"path":"rotation"}},{"sampler":10,"target":{"node":11,"path":"rotation"}}]},{"name":"Sprint","samplers":[{"input":55,"output":56,"interpolation":"LINEAR"},{"input":57,"output":58,"interpolation":"LINEAR"},{"input":59,"output":60,"interpolation":"LINEAR"},{"input":61,"output":62,"interpolation":"LINEAR"},{"input":63,"output":64,"interpolation":"LINEAR"},{"input":65,"output":66,"interpolation":"LINEAR"},{"input":67,"output":68,"interpolation":"LINEAR"},{"input":69,"output":70,"interpolation":"LINEAR"},{"input":71,"output":72,"interpolation":"LINEAR"}],"channels":[{"sampler":0,"target":{"node":3,"path":"rotation"}},{"sampler":1,"target":{"node":4,"path":"rotation"}},{"sampler":2,"target":{"node":13,"path":"rotation"}},{"sampler":3,"target":{"node":16,"path":"rotation"}},{"sampler":4,"target":{"node":14,"path":"rotation"}},{"sampler":5,"target":{"node":17,"path":"rotation"}},{"sampler":6,"target":{"node":7,"path":"rotation"}},{"sampler":7,"target":{"node":10,"path":"rotation"}},{"sampler":8,"target":{"node":6,"path":"rotation"}}]},{"name":"Attack","samplers":[{"input":73,"output":74,"interpolation":"LINEAR"},{"input":75,"output":76,"interpolation":"LINEAR"},{"input":77,"output":78,"interpolation":"LINEAR"},{"input":79,"output":80,"interpolation":"LINEAR"},{"input":81,"output":82,"interpolation":"LINEAR"},{"input":83,"output":84,"interpolation":"LINEAR"},{"input":85,"output":86,"interpolation":"LINEAR"}],"channels":[{"sampler":0,"target":{"node":3,"path":"rotation"}},{"sampler":1,"target":{"node":4,"path":"rotation"}},{"sampler":2,"target":{"node":7,"path":"rotation"}},{"sampler":3,"target":{"node":10,"path":"rotation"}},{"sampler":4,"target":{"node":8,"path":"rotation"}},{"sampler":5,"target":{"node":11,"path":"rotation"}},{"sampler":6,"target":{"node":6,"path":"rotation"}}]},{"name":"Hit","samplers":[{"input":87,"output":88,"interpolation":"LINEAR"},{"input":89,"output":90,"interpolation":"LINEAR"},{"input":91,"output":92,"interpolation":"LINEAR"}],"channels":[{"sampler":0,"target":{"node":3,"path":"rotation"}},{"sampler":1,"target":{"node":4,"path":"rotation"}},{"sampler":2,"target":{"node":6,"path":"rotation"}}]}],"bufferViews":[{"buffer":0,"byteOffset":0,"byteLength":6768},{"buffer":0,"byteOffset":6768,"byteLength":6768},{"buffer":0,"byteOffset":13536,"byteLength":4512},{"buffer":0,"byteOffset":18048,"byteLength":9024},{"buffer":0,"byteOffset":27072,"byteLength":5040},{"buffer":0,"byteOffset":32112,"byteLength":5040},{"buffer":0,"byteOffset":37152,"byteLength":3360},{"buffer":0,"byteOffset":40512,"byteLength":6720},{"buffer":0,"byteOffset":47232,"byteLength":5760},{"buffer":0,"byteOffset":52992,"byteLength":5760},{"buffer":0,"byteOffset":58752,"byteLength":3840},{"buffer":0,"byteOffset":62592,"byteLength":7680},{"buffer":0,"byteOffset":70272,"byteLength":864},{"buffer":0,"byteOffset":71136,"byteLength":864},{"buffer":0,"byteOffset":72000,"byteLength":576},{"buffer":0,"byteOffset":72576,"byteLength":1152},{"buffer":0,"byteOffset":73728,"byteLength":1296},{"buffer":0,"byteOffset":75024,"byteLength":1296},{"buffer":0,"byteOffset":76320,"byteLength":864},{"buffer":0,"byteOffset":77184,"byteLength":1728},{"buffer":0,"byteOffset":78912,"byteLength":864},{"buffer":0,"byteOffset":79776,"byteLength":864},{"buffer":0,"byteOffset":80640,"byteLength":576},{"buffer":0,"byteOffset":81216,"byteLength":1152},{"buffer":0,"byteOffset":82368,"byteLength":432},{"buffer":0,"byteOffset":82800,"byteLength":432},{"buffer":0,"byteOffset":83232,"byteLength":288},{"buffer":0,"byteOffset":83520,"byteLength":576},{"buffer":0,"byteOffset":84096,"byteLength":1088},{"buffer":0,"byteOffset":85184,"byteLength":20},{"buffer":0,"byteOffset":85204,"byteLength":80},{"buffer":0,"byteOffset":85284,"byteLength":20},{"buffer":0,"byteOffset":85304,"byteLength":80},{"buffer":0,"byteOffset":85384,"byteLength":20},{"buffer":0,"byteOffset":85404,"byteLength":80},{"buffer":0,"byteOffset":85484,"byteLength":20},{"buffer":0,"byteOffset":85504,"byteLength":80},{"buffer":0,"byteOffset":85584,"byteLength":20},{"buffer":0,"byteOffset":85604,"byteLength":80},{"buffer":0,"byteOffset":85684,"byteLength":20},{"buffer":0,"byteOffset":85704,"byteLength":80},{"buffer":0,"byteOffset":85784,"byteLength":20},{"buffer":0,"byteOffset":85804,"byteLength":80},{"buffer":0,"byteOffset":85884,"byteLength":20},{"buffer":0,"byteOffset":85904,"byteLength":80},{"buffer":0,"byteOffset":85984,"byteLength":20},{"buffer":0,"byteOffset":86004,"byteLength":80},{"buffer":0,"byteOffset":86084,"byteLength":20},{"buffer":0,"byteOffset":86104,"byteLength":80},{"buffer":0,"byteOffset":86184,"byteLength":20},{"buffer":0,"byteOffset":86204,"byteLength":80},{"buffer":0,"byteOffset":86284,"byteLength":20},{"buffer":0,"byteOffset":86304,"byteLength":80},{"buffer":0,"byteOffset":86384,"byteLength":20},{"buffer":0,"byteOffset":86404,"byteLength":80},{"buffer":0,"byteOffset":86484,"byteLength":20},{"buffer":0,"byteOffset":86504,"byteLength":80},{"buffer":0,"byteOffset":86584,"byteLength":20},{"buffer":0,"byteOffset":86604,"byteLength":80},{"buffer":0,"byteOffset":86684,"byteLength":20},{"buffer":0,"byteOffset":86704,"byteLength":80},{"buffer":0,"byteOffset":86784,"byteLength":20},{"buffer":0,"byteOffset":86804,"byteLength":80},{"buffer":0,"byteOffset":86884,"byteLength":20},{"buffer":0,"byteOffset":86904,"byteLength":80},{"buffer":0,"byteOffset":86984,"byteLength":20},{"buffer":0,"byteOffset":87004,"byteLength":80},{"buffer":0,"byteOffset":87084,"byteLength":20},{"buffer":0,"byteOffset":87104,"byteLength":80},{"buffer":0,"byteOffset":87184,"byteLength":20},{"buffer":0,"byteOffset":87204,"byteLength":80},{"buffer":0,"byteOffset":87284,"byteLength":20},{"buffer":0,"byteOffset":87304,"byteLength":80},{"buffer":0,"byteOffset":87384,"byteLength":20},{"buffer":0,"byteOffset":87404,"byteLength":80},{"buffer":0,"byteOffset":87484,"byteLength":20},{"buffer":0,"byteOffset":87504,"byteLength":80},{"buffer":0,"byteOffset":87584,"byteLength":20},{"buffer":0,"byteOffset":87604,"byteLength":80},{"buffer":0,"byteOffset":87684,"byteLength":20},{"buffer":0,"byteOffset":87704,"byteLength":80},{"buffer":0,"byteOffset":87784,"byteLength":20},{"buffer":0,"byteOffset":87804,"byteLength":80},{"buffer":0,"byteOffset":87884,"byteLength":20},{"buffer":0,"byteOffset":87904,"byteLength":80},{"buffer":0,"byteOffset":87984,"byteLength":20},{"buffer":0,"byteOffset":88004,"byteLength":80},{"buffer":0,"byteOffset":88084,"byteLength":16},{"buffer":0,"byteOffset":88100,"byteLength":64},{"buffer":0,"byteOffset":88164,"byteLength":16},{"buffer":0,"byteOffset":88180,"byteLength":64},{"buffer":0,"byteOffset":88244,"byteLength":16},{"buffer":0,"byteOffset":88260,"byteLength":64}],"accessors":[{"bufferView":0,"componentType":5126,"count":564,"type":"VEC3","min":[-0.3,0.8249999999999997,-0.2425],"max":[0.3,2.04,0.015]},{"bufferView":1,"componentType":5126,"count":564,"type":"VEC3","min":[-1,-1,-1],"max":[1,1,1]},{"bufferView":2,"componentType":5123,"count":564,"type":"VEC4"},{"bufferView":3,"componentType":5126,"count":564,"type":"VEC4"},{"bufferView":4,"componentType":5126,"count":420,"type":"VEC3","min":[-0.315,1.03,-0.155],"max":[0.315,1.62,0.095]},{"bufferView":5,"componentType":5126,"count":420,"type":"VEC3","min":[-1,-1,-1],"max":[1,1,1]},{"bufferView":6,"componentType":5123,"count":420,"type":"VEC4"},{"bufferView":7,"componentType":5126,"count":420,"type":"VEC4"},{"bufferView":8,"componentType":5126,"count":480,"type":"VEC3","min":[-0.203,0.07,-0.115],"max":[0.203,1.03,0.115]},{"bufferView":9,"componentType":5126,"count":480,"type":"VEC3","min":[-0.9113541792357558,-1,-0.9597341303453895],"max":[0.9113541792357558,1,0.9597341303453895]},{"bufferView":10,"componentType":5123,"count":480,"type":"VEC4"},{"bufferView":11,"componentType":5126,"count":480,"type":"VEC4"},{"bufferView":12,"componentType":5126,"count":72,"type":"VEC3","min":[-0.18,-0.009999999999999995,-0.30000000000000004],"max":[0.18,0.07,-0.01999999999999999]},{"bufferView":13,"componentType":5126,"count":72,"type":"VEC3","min":[-1,-1,-1],"max":[1,1,1]},{"bufferView":14,"componentType":5123,"count":72,"type":"VEC4"},{"bufferView":15,"componentType":5126,"count":72,"type":"VEC4"},{"bufferView":16,"componentType":5126,"count":108,"type":"VEC3","min":[-0.29500000000000004,1.0199999999999998,-0.224],"max":[0.13,1.8875,-0.116]},{"bufferView":17,"componentType":5126,"count":108,"type":"VEC3","min":[-1,-1,-1],"max":[1,1,1]},{"bufferView":18,"componentType":5123,"count":108,"type":"VEC4"},{"bufferView":19,"componentType":5126,"count":108,"type":"VEC4"},{"bufferView":20,"componentType":5126,"count":72,"type":"VEC3","min":[-0.07,1.894,-0.23750000000000002],"max":[0.07,1.9159999999999997,-0.2225]},{"bufferView":21,"componentType":5126,"count":72,"type":"VEC3","min":[-1,-1,-1],"max":[1,1,1]},{"bufferView":22,"componentType":5123,"count":72,"type":"VEC4"},{"bufferView":23,"componentType":5126,"count":72,"type":"VEC4"},{"bufferView":24,"componentType":5126,"count":36,"type":"VEC3","min":[-0.11,2,-0.19],"max":[0.11,2.05,-0.03]},{"bufferView":25,"componentType":5126,"count":36,"type":"VEC3","min":[-1,-1,-1],"max":[1,1,1]},{"bufferView":26,"componentType":5123,"count":36,"type":"VEC4"},{"bufferView":27,"componentType":5126,"count":36,"type":"VEC4"},{"bufferView":28,"componentType":5126,"count":17,"type":"MAT4"},{"bufferView":29,"componentType":5126,"count":5,"type":"SCALAR"},{"bufferView":30,"componentType":5126,"count":5,"type":"VEC4"},{"bufferView":31,"componentType":5126,"count":5,"type":"SCALAR"},{"bufferView":32,"componentType":5126,"count":5,"type":"VEC4"},{"bufferView":33,"componentType":5126,"count":5,"type":"SCALAR"},{"bufferView":34,"componentType":5126,"count":5,"type":"VEC4"},{"bufferView":35,"componentType":5126,"count":5,"type":"SCALAR"},{"bufferView":36,"componentType":5126,"count":5,"type":"VEC4"},{"bufferView":37,"componentType":5126,"count":5,"type":"SCALAR"},{"bufferView":38,"componentType":5126,"count":5,"type":"VEC4"},{"bufferView":39,"componentType":5126,"count":5,"type":"SCALAR"},{"bufferView":40,"componentType":5126,"count":5,"type":"VEC4"},{"bufferView":41,"componentType":5126,"count":5,"type":"SCALAR"},{"bufferView":42,"componentType":5126,"count":5,"type":"VEC4"},{"bufferView":43,"componentType":5126,"count":5,"type":"SCALAR"},{"bufferView":44,"componentType":5126,"count":5,"type":"VEC4"},{"bufferView":45,"componentType":5126,"count":5,"type":"SCALAR"},{"bufferView":46,"componentType":5126,"count":5,"type":"VEC4"},{"bufferView":47,"componentType":5126,"count":5,"type":"SCALAR"},{"bufferView":48,"componentType":5126,"count":5,"type":"VEC4"},{"bufferView":49,"componentType":5126,"count":5,"type":"SCALAR"},{"bufferView":50,"componentType":5126,"count":5,"type":"VEC4"},{"bufferView":51,"componentType":5126,"count":5,"type":"SCALAR"},{"bufferView":52,"componentType":5126,"count":5,"type":"VEC4"},{"bufferView":53,"componentType":5126,"count":5,"type":"SCALAR"},{"bufferView":54,"componentType":5126,"count":5,"type":"VEC4"},{"bufferView":55,"componentType":5126,"count":5,"type":"SCALAR"},{"bufferView":56,"componentType":5126,"count":5,"type":"VEC4"},{"bufferView":57,"componentType":5126,"count":5,"type":"SCALAR"},{"bufferView":58,"componentType":5126,"count":5,"type":"VEC4"},{"bufferView":59,"componentType":5126,"count":5,"type":"SCALAR"},{"bufferView":60,"componentType":5126,"count":5,"type":"VEC4"},{"bufferView":61,"componentType":5126,"count":5,"type":"SCALAR"},{"bufferView":62,"componentType":5126,"count":5,"type":"VEC4"},{"bufferView":63,"componentType":5126,"count":5,"type":"SCALAR"},{"bufferView":64,"componentType":5126,"count":5,"type":"VEC4"},{"bufferView":65,"componentType":5126,"count":5,"type":"SCALAR"},{"bufferView":66,"componentType":5126,"count":5,"type":"VEC4"},{"bufferView":67,"componentType":5126,"count":5,"type":"SCALAR"},{"bufferView":68,"componentType":5126,"count":5,"type":"VEC4"},{"bufferView":69,"componentType":5126,"count":5,"type":"SCALAR"},{"bufferView":70,"componentType":5126,"count":5,"type":"VEC4"},{"bufferView":71,"componentType":5126,"count":5,"type":"SCALAR"},{"bufferView":72,"componentType":5126,"count":5,"type":"VEC4"},{"bufferView":73,"componentType":5126,"count":5,"type":"SCALAR"},{"bufferView":74,"componentType":5126,"count":5,"type":"VEC4"},{"bufferView":75,"componentType":5126,"count":5,"type":"SCALAR"},{"bufferView":76,"componentType":5126,"count":5,"type":"VEC4"},{"bufferView":77,"componentType":5126,"count":5,"type":"SCALAR"},{"bufferView":78,"componentType":5126,"count":5,"type":"VEC4"},{"bufferView":79,"componentType":5126,"count":5,"type":"SCALAR"},{"bufferView":80,"componentType":5126,"count":5,"type":"VEC4"},{"bufferView":81,"componentType":5126,"count":5,"type":"SCALAR"},{"bufferView":82,"componentType":5126,"count":5,"type":"VEC4"},{"bufferView":83,"componentType":5126,"count":5,"type":"SCALAR"},{"bufferView":84,"componentType":5126,"count":5,"type":"VEC4"},{"bufferView":85,"componentType":5126,"count":5,"type":"SCALAR"},{"bufferView":86,"componentType":5126,"count":5,"type":"VEC4"},{"bufferView":87,"componentType":5126,"count":4,"type":"SCALAR"},{"bufferView":88,"componentType":5126,"count":4,"type":"VEC4"},{"bufferView":89,"componentType":5126,"count":4,"type":"SCALAR"},{"bufferView":90,"componentType":5126,"count":4,"type":"VEC4"},{"bufferView":91,"componentType":5126,"count":4,"type":"SCALAR"},{"bufferView":92,"componentType":5126,"count":4,"type":"VEC4"}],"buffers":[{"byteLength":88324,"uri":"data:application/octet-stream;base64,"}]}